<?xml version="1.0" standalone="no"?>
<!DOCTYPE svg PUBLIC "-//W3C//DTD SVG 20010904//EN"
 "http://www.w3.org/TR/2001/REC-SVG-20010904/DTD/svg10.dtd">
<svg version="1.0" xmlns="http://www.w3.org/2000/svg"
 width="348.000000pt" height="249.000000pt" viewBox="0 0 348.000000 249.000000"
 preserveAspectRatio="xMidYMid meet">
<metadata>
Created by potrace 1.10, written by Peter Selinger 2001-2011
</metadata>
<g transform="translate(0.000000,249.000000) scale(0.100000,-0.100000)"
fill="#ffffff" stroke="none">
<path d="M1293 2123 c-21 -21 -75 -69 -119 -108 -84 -74 -186 -166 -194 -176
-3 -3 -57 -52 -120 -108 -63 -57 -160 -145 -215 -195 -141 -129 -217 -198
-248 -223 -35 -29 -34 -58 1 -80 15 -9 56 -44 92 -77 137 -128 346 -322 381
-356 64 -61 162 -152 274 -255 60 -55 131 -121 159 -148 58 -54 77 -63 107
-47 15 9 19 17 14 33 -14 46 -32 307 -26 385 1 11 144 13 779 10 l777 -3 -2
460 c-3 429 -4 460 -20 464 -10 2 -23 7 -30 13 -7 5 -298 9 -740 9 -400 -1
-734 3 -741 7 -9 6 -14 65 -19 213 -4 130 -10 207 -17 211 -24 16 -55 6 -93
-29z m47 -272 l5 -202 765 -2 765 -2 0 -395 0 -395 -745 -2 c-436 -2 -753 -6
-765 -12 -11 -5 -28 -12 -38 -15 -10 -3 -16 -9 -13 -14 5 -8 21 -159 31 -279
6 -87 -4 -93 -56 -35 -19 20 -104 102 -189 182 -85 80 -168 159 -186 175 -118
113 -347 325 -411 381 -41 36 -41 54 -1 84 42 31 60 46 234 206 54 50 124 113
154 139 73 64 268 243 355 327 39 37 75 66 80 64 6 -1 12 -83 15 -205z"/>
<path d="M1069 1608 c0 -2 -3 -144 -6 -315 -5 -292 -4 -313 12 -319 10 -4 25
-3 33 3 13 8 15 34 14 169 -1 87 -5 206 -8 264 l-6 105 26 -34 c14 -19 26 -40
26 -47 0 -7 11 -34 24 -61 13 -26 41 -84 61 -128 93 -200 131 -275 140 -275 9
0 89 157 170 335 20 44 40 88 46 97 5 10 9 24 9 32 0 8 6 21 13 28 7 7 19 22
26 33 10 16 11 1 7 -85 -3 -58 -7 -176 -8 -264 -1 -141 0 -159 16 -168 40 -22
42 -10 41 213 -1 118 -2 258 -3 312 l-2 98 -27 -3 c-24 -3 -37 -22 -123 -193
-52 -105 -103 -211 -113 -235 -48 -118 -48 -118 -73 -62 -9 20 -39 83 -65 139
-27 55 -49 106 -49 112 0 6 -4 11 -10 11 -5 0 -10 6 -10 14 0 8 -24 60 -54
117 -45 88 -58 104 -80 107 -14 2 -26 2 -27 0z"/>
<path d="M2660 1486 c-6 -8 -10 -25 -8 -38 2 -19 9 -23 38 -23 29 0 36 4 38
23 4 28 -14 52 -38 52 -10 0 -23 -7 -30 -14z"/>
<path d="M1914 1352 c-52 -29 -70 -46 -97 -89 -89 -141 54 -330 220 -293 61
14 113 53 113 85 0 34 -14 38 -47 12 -65 -53 -146 -69 -179 -35 -15 15 -7 25
107 137 l124 121 -30 26 c-65 54 -151 69 -211 36z m156 -52 c11 -7 -8 -32 -93
-117 -120 -121 -127 -122 -127 -17 0 65 13 90 68 126 29 19 126 25 152 8z"/>
<path d="M2223 1363 c-10 -3 -13 -52 -13 -193 0 -183 1 -189 21 -195 37 -12
44 8 40 131 -2 95 0 119 14 142 30 46 56 62 109 62 42 0 53 -5 83 -35 l35 -35
-3 -125 c-3 -132 2 -152 40 -140 20 6 21 13 21 128 -1 144 -18 194 -85 239
-63 43 -151 34 -190 -18 -13 -18 -15 -17 -25 14 -12 31 -21 36 -47 25z"/>
<path d="M2665 1361 c-10 -17 -8 -372 3 -383 6 -6 19 -7 31 -3 20 6 21 12 21
195 0 162 -2 189 -16 194 -22 8 -32 8 -39 -3z"/>
</g>
</svg>
